<svg xmlns="http://www.w3.org/2000/svg" xmlns:xlink="http://www.w3.org/1999/xlink" width="5807" height="3585" viewBox="0 0 5807 3585">
  <g id="Paths">
    <line x1="1171" y1="358" x2="1115" y2="592"/>
    <line x1="1115" y1="592" x2="1308" y2="647"/>
    <line x1="1308" y1="647" x2="886" y2="2210"/>
    <line x1="886" y1="2210" x2="1001" y2="2316"/>
    <line x1="1001" y1="2316" x2="1160" y2="2317"/>
    <line x1="1010" y1="1753" x2="1053" y2="1767"/>
    <line x1="939" y1="2014" x2="975" y2="2026"/>
    <line x1="984" y1="1849" x2="1032" y2="1859"/>
    <line x1="963" y1="1926" x2="1008" y2="1942"/>
    <line x1="1232" y1="626" x2="1188" y2="733"/>
    <line x1="1171" y1="358" x2="1131" y2="346"/>
  </g>
  <g id="Doors">
    <line id="lcd.FirstFloorHallWay" x1="1131" y1="346" x2="1137" y2="370"/>
    <line id="R175_1_" x1="1188" y1="733" x2="1160" y2="731"/>
    <line id="R144_1_" x1="1053" y1="1767" x2="1062" y2="1790"/>
    <line id="R142_1_" x1="1032" y1="1859" x2="1047" y2="1880"/>
    <line id="R141_1_" x1="1008" y1="1942" x2="1034" y2="1937"/>
    <line id="R140_1_" x1="975" y1="2026" x2="998" y2="2023"/>
    <line id="R120_1_" x1="1160" y1="2317" x2="1173" y2="2300"/>
  </g>
  <g id="Rooms">
    <a id="R175">
      <g>
        <path d="M919 587 1161 655 1235 779"/>
      </g>
    </a>
    <a id="R144">
      <g>
        <path d="M1050 1713 1106 1729 1075 1837 1021 1820 1050 1713"/>
      </g>
    </a>
  </g>
</svg>
