<svg xmlns="http://www.w3.org/2000/svg" xmlns:xlink="http://www.w3.org/1999/xlink" width="5807" height="3585" viewBox="0 0 5807 3585">
  <g id="Paths">
    <line class="cls-1" x1="1184" y1="301" x2="1150" y2="443"/>
    <line class="cls-1" x1="1308" y1="647" x2="1042" y2="1634"/>
    <line class="cls-1" x1="886" y1="2210" x2="930" y2="2250"/>
    <line class="cls-1" x1="1001" y1="2316" x2="1090" y2="2347"/>
    <line class="cls-1" x1="1010" y1="1753" x2="1053" y2="1767"/>
    <line class="cls-1" x1="939" y1="2014" x2="975" y2="2026"/>
    <line class="cls-1" x1="984" y1="1849" x2="1032" y2="1859"/>
    <line class="cls-1" x1="963" y1="1926" x2="1008" y2="1942"/>
    <line class="cls-1" x1="1232" y1="626" x2="1235" y2="682"/>
    <line class="cls-1" x1="1195" y1="262" x2="1146" y2="252"/>
    <line class="cls-1" x1="1232" y1="626" x2="1308" y2="647"/>
    <line class="cls-1" x1="1010" y1="1753" x2="984" y2="1849"/>
    <line class="cls-1" x1="984" y1="1849" x2="963" y2="1926"/>
    <line class="cls-1" x1="963" y1="1926" x2="939" y2="2014"/>
    <line class="cls-1" x1="939" y1="2014" x2="905" y2="2142"/>
    <line class="cls-1" x1="905" y1="2142" x2="936" y2="2165"/>
    <line class="cls-1" x1="905" y1="2142" x2="886" y2="2210"/>
    <line class="cls-1" x1="886" y1="2210" x2="793" y2="2213"/>
    <line class="cls-1" x1="793" y1="2213" x2="698" y2="2211"/>
    <line class="cls-1" x1="698" y1="2211" x2="700" y2="2051"/>
    <line class="cls-1" x1="1308" y1="647" x2="1367" y2="650"/>
    <line class="cls-1" x1="1184" y1="301" x2="1300" y2="281"/>
    <line class="cls-1" x1="1195" y1="262" x2="1194" y2="132"/>
    <line class="cls-1" x1="1194" y1="132" x2="1016" y2="100"/>
    <line class="cls-1" x1="1016" y1="100" x2="1008" y2="181"/>
    <line class="cls-1" x1="1016" y1="100" x2="859" y2="70"/>
    <line class="cls-1" x1="859" y1="70" x2="788" y2="320"/>
    <line class="cls-1" x1="788" y1="320" x2="855" y2="351"/>
    <line class="cls-1" x1="855" y1="351" x2="844" y2="392"/>
    <line class="cls-1" x1="1001" y1="2316" x2="1035" y2="2485"/>
    <line class="cls-1" x1="698" y1="2211" x2="575" y2="2211"/>
    <line class="cls-1" x1="432" y1="2174" x2="346" y2="2174"/>
    <line class="cls-1" x1="346" y1="2174" x2="346" y2="2230"/>
    <line class="cls-1" x1="575" y1="2211" x2="547" y2="2104"/>
    <line class="cls-1" x1="547" y1="2104" x2="458" y2="2072"/>
    <line class="cls-1" x1="575" y1="2211" x2="458" y2="2213"/>
    <line class="cls-1" x1="1042" y1="1634" x2="1010" y2="1753"/>
    <line class="cls-1" x1="962" y1="2279" x2="1016" y2="2280"/>
    <line class="cls-1" x1="962" y1="2279" x2="1001" y2="2316"/>
    <line class="cls-1" x1="1150" y1="443" x2="1358" y2="506"/>
    <line class="cls-1" x1="575" y1="2211" x2="575" y2="1760"/>
    <line class="cls-1" x1="930" y1="2250" x2="870" y2="2285"/>
    <line class="cls-1" x1="930" y1="2250" x2="962" y2="2279"/>
    <line class="cls-1" x1="1090" y1="2347" x2="1178" y2="2346"/>
    <line class="cls-1" x1="1090" y1="2347" x2="1090" y2="2483"/>
    <line class="cls-1" x1="1235" y1="682" x2="1172" y2="750"/>
    <line class="cls-1" x1="1195" y1="262" x2="1184" y2="301"/>
    <line class="cls-1" x1="1184" y1="301" x2="1105" y2="282"/>
    <line class="cls-1" x1="2856" y1="2303" x2="2419" y2="2303"/>
    <line class="cls-1" x1="2511" y1="2052" x2="2511" y2="2139"/>
    <line class="cls-1" x1="2851" y1="2052" x2="2852" y2="2139"/>
    <line class="cls-1" x1="2678" y1="2052" x2="2679" y2="2139"/>
    <line class="cls-1" x1="2418" y1="2139" x2="2511" y2="2139"/>
    <line class="cls-1" x1="2511" y1="2139" x2="2679" y2="2139"/>
    <line class="cls-1" x1="2679" y1="2139" x2="2852" y2="2139"/>
    <line class="cls-1" x1="2852" y1="2139" x2="2935" y2="2140"/>
    <line class="cls-1" x1="2935" y1="2140" x2="3102" y2="2139"/>
    <line class="cls-1" x1="3102" y1="2139" x2="3102" y2="1964"/>
    <line class="cls-1" x1="3102" y1="1964" x2="3176" y2="1964"/>
    <line class="cls-1" x1="3102" y1="2139" x2="3176" y2="2139"/>
    <line class="cls-1" x1="3102" y1="1964" x2="3102" y2="1799"/>
    <line class="cls-1" x1="3102" y1="1799" x2="3176" y2="1799"/>
    <line class="cls-1" x1="2935" y1="2303" x2="3045" y2="2302"/>
    <line class="cls-1" x1="3045" y1="2302" x2="3052" y2="2395"/>
    <line class="cls-1" x1="2935" y1="2303" x2="2932" y2="2400"/>
    <line class="cls-1" x1="2932" y1="2400" x2="3041" y2="2411"/>
    <line class="cls-1" x1="2932" y1="2400" x2="2922" y2="2529"/>
    <line class="cls-1" x1="2922" y1="2529" x2="2994" y2="2531"/>
    <line class="cls-1" x1="2922" y1="2529" x2="2922" y2="2888"/>
    <line class="cls-1" x1="2922" y1="3037" x2="3033" y2="3037"/>
    <line class="cls-1" x1="3033" y1="3037" x2="3035" y2="3196"/>
    <line class="cls-1" x1="2922" y1="3037" x2="2865" y2="3106"/>
    <line class="cls-1" x1="2865" y1="3106" x2="2783" y2="3106"/>
    <line class="cls-1" x1="2865" y1="3106" x2="2865" y2="3251"/>
    <line class="cls-1" x1="2865" y1="3251" x2="2783" y2="3251"/>
    <line class="cls-1" x1="2865" y1="3251" x2="2865" y2="3445"/>
    <line class="cls-1" x1="2865" y1="3445" x2="2940" y2="3445"/>
    <line class="cls-1" x1="2922" y1="2888" x2="2870" y2="2889"/>
    <line class="cls-1" x1="2870" y1="2889" x2="2869" y2="2787"/>
    <line class="cls-1" x1="2870" y1="2889" x2="2870" y2="3002"/>
    <line class="cls-1" x1="2870" y1="3002" x2="2345" y2="3017"/>
    <line class="cls-1" x1="2345" y1="3017" x2="2333" y2="3257"/>
    <line class="cls-1" x1="2870" y1="3002" x2="2865" y2="3106"/>
    <line class="cls-1" x1="3045" y1="2302" x2="3169" y2="2301"/>
    <line class="cls-1" x1="3383" y1="2199" x2="3383" y2="2014"/>
    <line class="cls-1" x1="3383" y1="2014" x2="3292" y2="2014"/>
    <line class="cls-1" x1="3383" y1="2014" x2="3383" y2="1908"/>
    <line class="cls-1" x1="3383" y1="1908" x2="3292" y2="1908"/>
    <line class="cls-1" x1="3383" y1="2014" x2="3532" y2="1956"/>
    <line class="cls-1" x1="3383" y1="1908" x2="3383" y2="1830"/>
    <line class="cls-1" x1="3383" y1="1830" x2="3292" y2="1830"/>
    <line class="cls-1" x1="3383" y1="1830" x2="3383" y2="1764"/>
    <line class="cls-1" x1="3383" y1="1764" x2="3292" y2="1764"/>
    <line class="cls-1" x1="3383" y1="1764" x2="3435" y2="1764"/>
    <line class="cls-1" x1="3383" y1="1764" x2="3383" y2="1704"/>
    <line class="cls-1" x1="3383" y1="1704" x2="3440" y2="1704"/>
    <line class="cls-1" x1="3440" y1="1704" x2="3440" y2="1631"/>
    <line class="cls-1" x1="3440" y1="1704" x2="3536" y2="1704"/>
    <line class="cls-1" x1="3102" y1="1799" x2="3102" y2="1704"/>
    <line class="cls-1" x1="3102" y1="1704" x2="3383" y2="1704"/>
    <line class="cls-1" x1="3102" y1="1704" x2="3095" y2="1408"/>
    <line class="cls-1" x1="3095" y1="1408" x2="3114" y2="1281"/>
    <line class="cls-1" x1="3114" y1="1281" x2="3195" y2="1280"/>
    <line class="cls-1" x1="3195" y1="1280" x2="3237" y2="1209"/>
    <line class="cls-1" x1="3114" y1="1281" x2="3125" y2="1088"/>
    <line class="cls-1" x1="3125" y1="1088" x2="3105" y2="1067"/>
    <line class="cls-1" x1="3105" y1="1067" x2="3063" y2="1122"/>
    <line class="cls-1" x1="3105" y1="1067" x2="3042" y2="1078"/>
    <line class="cls-1" x1="3042" y1="1078" x2="2974" y2="1063"/>
    <line class="cls-1" x1="3125" y1="1088" x2="3174" y2="909"/>
    <line class="cls-1" x1="3174" y1="909" x2="3084" y2="882"/>
    <line class="cls-1" x1="3102" y1="1964" x2="3014" y2="1964"/>
    <line class="cls-1" x1="3174" y1="909" x2="3205" y2="811"/>
    <line class="cls-1" x1="3205" y1="811" x2="3042" y2="552"/>
    <line class="cls-1" x1="3042" y1="552" x2="2803" y2="485"/>
    <line class="cls-1" x1="2803" y1="485" x2="2820" y2="421"/>
    <line class="cls-1" x1="2803" y1="485" x2="2633" y2="427"/>
    <line class="cls-1" x1="2633" y1="427" x2="2570" y2="436"/>
    <line class="cls-1" x1="2633" y1="427" x2="2586" y2="379"/>
    <line class="cls-1" x1="3205" y1="811" x2="3275" y2="731"/>
    <line class="cls-1" x1="3275" y1="731" x2="3289" y2="681"/>
    <line class="cls-1" x1="3289" y1="681" x2="3253" y2="659"/>
    <line class="cls-1" x1="3289" y1="681" x2="3282" y2="529"/>
    <line class="cls-1" x1="3264" y1="505" x2="3181" y2="395"/>
    <line class="cls-1" x1="3181" y1="395" x2="3204" y2="311"/>
    <line class="cls-1" x1="3181" y1="395" x2="3018" y2="330"/>
    <line class="cls-1" x1="3018" y1="330" x2="3029" y2="277"/>
    <line class="cls-1" x1="3029" y1="277" x2="2949" y2="254"/>
    <line class="cls-1" x1="3205" y1="811" x2="3210" y2="687"/>
    <line class="cls-1" x1="3383" y1="2253" x2="3383" y2="2199"/>
    <line class="cls-1" x1="3383" y1="2199" x2="3269" y2="2199"/>
    <line class="cls-1" x1="3269" y1="2199" x2="3242" y2="2180"/>
    <line class="cls-1" x1="3269" y1="2199" x2="3269" y2="2163"/>
    <line class="cls-1" x1="3269" y1="2163" x2="3251" y2="2164"/>
    <line class="cls-1" x1="2342" y1="2140" x2="2221" y2="2128"/>
    <line class="cls-1" x1="2221" y1="2128" x2="2221" y2="2098"/>
    <line class="cls-1" x1="2865" y1="3106" x2="2975" y2="3106"/>
    <line class="cls-1" x1="3269" y1="2299" x2="3269" y2="2199"/>
    <line class="cls-1" x1="3150" y1="57" x2="2897" y2="31"/>
    <line class="cls-1" x1="2897" y1="31" x2="2109" y2="102"/>
    <line class="cls-1" x1="1522" y1="485" x2="1358" y2="506"/>
    <line class="cls-1" x1="3150" y1="57" x2="3297" y2="104"/>
    <line class="cls-1" x1="3297" y1="104" x2="3389" y2="166"/>
    <line class="cls-1" x1="3440" y1="391" x2="3470" y2="315"/>
    <line class="cls-1" x1="3470" y1="315" x2="3449" y2="213"/>
    <line class="cls-1" x1="3449" y1="213" x2="3389" y2="166"/>
    <line class="cls-1" x1="5259" y1="2585" x2="5259" y2="2352"/>
    <line class="cls-1" x1="5255" y1="1211" x2="5169" y2="1140"/>
    <line class="cls-1" x1="5265" y1="778" x2="5285" y2="702"/>
    <line class="cls-1" x1="4971" y1="608" x2="4805" y2="558"/>
    <line class="cls-1" x1="5285" y1="702" x2="5425" y2="739"/>
    <line class="cls-1" x1="5265" y1="778" x2="5370" y2="807"/>
    <line class="cls-1" x1="5100" y1="647" x2="5082" y2="713"/>
    <line class="cls-1" x1="5100" y1="647" x2="5285" y2="702"/>
    <line class="cls-1" x1="5285" y1="702" x2="5308" y2="616"/>
    <line class="cls-1" x1="5265" y1="778" x2="5236" y2="884"/>
    <line class="cls-1" x1="5236" y1="884" x2="5351" y2="918"/>
    <line class="cls-1" x1="5236" y1="884" x2="5217" y2="968"/>
    <line class="cls-1" x1="5217" y1="968" x2="5328" y2="1008"/>
    <line class="cls-1" x1="5217" y1="968" x2="5192" y2="1060"/>
    <line class="cls-1" x1="5192" y1="1060" x2="5297" y2="1100"/>
    <line class="cls-1" x1="5192" y1="1060" x2="5169" y2="1140"/>
    <line class="cls-1" x1="4805" y1="558" x2="4780" y2="646"/>
    <line class="cls-1" x1="4780" y1="646" x2="4861" y2="674"/>
    <line class="cls-1" x1="4780" y1="646" x2="4708" y2="634"/>
    <line class="cls-1" x1="4780" y1="646" x2="4788" y2="740"/>
    <line class="cls-1" x1="4780" y1="646" x2="4732" y2="730"/>
    <line class="cls-1" x1="4805" y1="558" x2="4744" y2="541"/>
    <line class="cls-1" x1="4744" y1="541" x2="4774" y2="440"/>
    <line class="cls-1" x1="4774" y1="440" x2="4719" y2="426"/>
    <line class="cls-1" x1="4744" y1="541" x2="4690" y2="528"/>
    <line class="cls-1" x1="4971" y1="608" x2="4958" y2="518"/>
    <line class="cls-1" x1="5100" y1="647" x2="4971" y2="608"/>
    <line class="cls-1" x1="4732" y1="730" x2="4641" y2="1022"/>
    <line class="cls-1" x1="5256" y1="1594" x2="5197" y2="1594"/>
    <line class="cls-1" x1="5256" y1="1594" x2="5259" y2="1536"/>
    <line class="cls-1" x1="5259" y1="1536" x2="5199" y2="1536"/>
    <line class="cls-1" x1="5259" y1="1536" x2="5255" y2="1211"/>
    <line class="cls-1" x1="5257" y1="1744" x2="5345" y2="1745"/>
    <line class="cls-1" x1="5257" y1="1744" x2="5256" y2="1594"/>
    <line class="cls-1" x1="5515" y1="1940" x2="5515" y2="2040"/>
    <line class="cls-1" x1="5346" y1="2102" x2="5258" y2="2101"/>
    <line class="cls-1" x1="5258" y1="2101" x2="5257" y2="1744"/>
    <line class="cls-1" x1="5346" y1="2102" x2="5344" y2="1968"/>
    <line class="cls-1" x1="5346" y1="2102" x2="5438" y2="2103"/>
    <line class="cls-1" x1="5438" y1="2103" x2="5436" y2="2025"/>
    <line class="cls-1" x1="5438" y1="2103" x2="5437" y2="2167"/>
    <line class="cls-1" x1="5438" y1="2103" x2="5516" y2="2104"/>
    <line class="cls-1" x1="5515" y1="1940" x2="5437" y2="1939"/>
    <line class="cls-1" x1="5515" y1="1940" x2="5515" y2="1874"/>
    <line class="cls-1" x1="5515" y1="1874" x2="5447" y2="1873"/>
    <line class="cls-1" x1="5515" y1="1874" x2="5514" y2="1792"/>
    <line class="cls-1" x1="5438" y1="1746" x2="5437" y2="1793"/>
    <line class="cls-1" x1="5438" y1="1746" x2="5513" y2="1747"/>
    <line class="cls-1" x1="5513" y1="1747" x2="5561" y2="1746"/>
    <line class="cls-1" x1="5599" y1="1746" x2="5597" y2="1664"/>
    <line class="cls-1" x1="5599" y1="1746" x2="5672" y2="1745"/>
    <line class="cls-1" x1="5514" y1="1792" x2="5513" y2="1747"/>
    <line class="cls-1" x1="5514" y1="1792" x2="5575" y2="1793"/>
    <line class="cls-1" x1="5516" y1="2104" x2="5642" y2="2103"/>
    <line class="cls-1" x1="5515" y1="2040" x2="5662" y2="2035"/>
    <line class="cls-1" x1="5515" y1="2040" x2="5516" y2="2104"/>
    <line class="cls-1" x1="5561" y1="1746" x2="5556" y2="1601"/>
    <line class="cls-1" x1="5561" y1="1746" x2="5599" y2="1746"/>
    <line class="cls-1" x1="5345" y1="1745" x2="5438" y2="1746"/>
    <line class="cls-1" x1="5259" y1="2352" x2="5348" y2="2353"/>
    <line class="cls-1" x1="5348" y1="2353" x2="5349" y2="2397"/>
    <line class="cls-1" x1="5259" y1="2352" x2="5258" y2="2141"/>
    <line class="cls-1" x1="5258" y1="2101" x2="5258" y2="2141"/>
    <line class="cls-1" x1="5258" y1="2141" x2="5104" y2="2142"/>
    <line class="cls-1" x1="4986" y1="2143" x2="4985" y2="2036"/>
    <line class="cls-1" x1="4986" y1="2143" x2="4747" y2="2142"/>
    <line class="cls-1" x1="4747" y1="2142" x2="4747" y2="2035"/>
    <line class="cls-1" x1="4747" y1="2142" x2="4626" y2="2142"/>
    <line class="cls-1" x1="4626" y1="2142" x2="4626" y2="2035"/>
    <line class="cls-1" x1="4626" y1="2142" x2="4391" y2="2143"/>
    <line class="cls-1" x1="4391" y1="2143" x2="4391" y2="2035"/>
    <line class="cls-1" x1="4391" y1="2143" x2="4391" y2="2233"/>
    <line class="cls-1" x1="4445" y1="2233" x2="5105" y2="2237"/>
    <line class="cls-1" x1="5105" y1="2237" x2="5104" y2="2142"/>
    <line class="cls-1" x1="5057" y1="2143" x2="4986" y2="2143"/>
    <line class="cls-1" x1="4445" y1="2233" x2="4391" y2="2233"/>
    <line class="cls-1" x1="5105" y1="2237" x2="5211" y2="2389"/>
    <line class="cls-1" x1="5211" y1="2389" x2="5215" y2="2440"/>
    <line class="cls-1" x1="5215" y1="2440" x2="5172" y2="2501"/>
    <line class="cls-1" x1="5101" y1="2542" x2="5011" y2="2544"/>
    <line class="cls-1" x1="5011" y1="2544" x2="4979" y2="2495"/>
    <line class="cls-1" x1="5258" y1="2141" x2="5323" y2="2142"/>
    <line class="cls-1" x1="5172" y1="2501" x2="5101" y2="2542"/>
    <line class="cls-1" x1="5259" y1="2585" x2="5313" y2="2587"/>
    <line class="cls-1" x1="5259" y1="2585" x2="5259" y2="2729"/>
    <line class="cls-1" x1="5259" y1="2729" x2="5314" y2="2730"/>
    <line class="cls-1" x1="5259" y1="2729" x2="5259" y2="2858"/>
    <line class="cls-1" x1="5259" y1="2858" x2="5314" y2="2860"/>
    <line class="cls-1" x1="5259" y1="2858" x2="5184" y2="2858"/>
    <line class="cls-1" x1="5259" y1="2858" x2="5259" y2="2954"/>
    <line class="cls-1" x1="5259" y1="2954" x2="5316" y2="2954"/>
    <line class="cls-1" x1="5259" y1="2954" x2="5259" y2="3053"/>
    <line class="cls-1" x1="5259" y1="3053" x2="5324" y2="3054"/>
    <line class="cls-1" x1="5259" y1="3053" x2="5259" y2="3145"/>
    <line class="cls-1" x1="5259" y1="3145" x2="5140" y2="3144"/>
    <line class="cls-1" x1="5140" y1="3144" x2="5139" y2="3085"/>
    <line class="cls-1" x1="5259" y1="3145" x2="5259" y2="3214"/>
    <line class="cls-1" x1="5140" y1="3144" x2="5139" y2="3270"/>
    <line class="cls-1" x1="5139" y1="3270" x2="5088" y2="3270"/>
    <line class="cls-1" x1="5139" y1="3270" x2="5140" y2="3365"/>
    <line class="cls-1" x1="5140" y1="3365" x2="5076" y2="3365"/>
    <line class="cls-1" x1="5076" y1="3365" x2="5076" y2="3412"/>
    <line class="cls-1" x1="2342" y1="2302" x2="2342" y2="2140"/>
    <line class="cls-1" x1="2935" y1="2303" x2="2935" y2="2225"/>
    <line class="cls-1" x1="2856" y1="2303" x2="2935" y2="2303"/>
    <line class="cls-1" x1="458" y1="2213" x2="432" y2="2272"/>
    <line class="cls-1" x1="1016" y1="2280" x2="1045" y2="2238"/>
    <line class="cls-1" x1="5445" y1="397" x2="5447" y2="527"/>
    <line class="cls-1" x1="5285" y1="702" x2="5390" y2="660"/>
    <line class="cls-1" x1="5390" y1="660" x2="5447" y2="527"/>
    <line class="cls-1" x1="5445" y1="397" x2="5393" y2="310"/>
    <line class="cls-1" x1="5393" y1="310" x2="5310" y2="264"/>
    <line class="cls-1" x1="3264" y1="505" x2="3292" y2="474"/>
    <line class="cls-1" x1="3264" y1="505" x2="3282" y2="529"/>
    <line class="cls-1" x1="3292" y1="474" x2="3379" y2="463"/>
    <line class="cls-1" x1="3379" y1="463" x2="3440" y2="391"/>
    <line class="cls-1" x1="1358" y1="506" x2="1308" y2="647"/>
    <line class="cls-1" x1="458" y1="2072" x2="248" y2="2003"/>
    <line class="cls-1" x1="248" y1="2003" x2="181" y2="2035"/>
    <line class="cls-1" x1="248" y1="2003" x2="188" y2="1948"/>
    <line class="cls-1" x1="1522" y1="485" x2="1673" y2="419"/>
    <line class="cls-1" x1="1673" y1="419" x2="1795" y2="274"/>
    <line class="cls-1" x1="1795" y1="274" x2="1963" y2="141"/>
    <line class="cls-1" x1="1963" y1="141" x2="2109" y2="102"/>
    <line class="cls-1" x1="1194" y1="132" x2="1113" y2="207"/>
    <line class="cls-1" x1="3169" y1="2301" x2="3169" y2="2239"/>
    <line class="cls-1" x1="3169" y1="2301" x2="3269" y2="2299"/>
    <line class="cls-1" x1="3383" y1="2253" x2="3502" y2="2253"/>
    <line class="cls-1" x1="2418" y1="2139" x2="2342" y2="2140"/>
    <line class="cls-1" x1="432" y1="2272" x2="403" y2="2387"/>
    <line class="cls-1" x1="403" y1="2387" x2="389" y2="2530"/>
    <line class="cls-1" x1="389" y1="2530" x2="418" y2="2655"/>
    <line class="cls-1" x1="418" y1="2655" x2="481" y2="2773"/>
    <line class="cls-1" x1="481" y1="2773" x2="665" y2="2897"/>
    <line class="cls-1" x1="665" y1="2897" x2="1008" y2="3010"/>
    <line class="cls-1" x1="1008" y1="3010" x2="1340" y2="3054"/>
    <line class="cls-1" x1="1340" y1="3054" x2="1832" y2="3054"/>
    <line class="cls-1" x1="1832" y1="3054" x2="2028" y2="3010"/>
    <line class="cls-1" x1="1045" y1="2238" x2="1106" y2="2100"/>
    <line class="cls-1" x1="1106" y1="2100" x2="1192" y2="2004"/>
    <line class="cls-1" x1="5310" y1="264" x2="5154" y2="216"/>
    <line class="cls-1" x1="5154" y1="216" x2="4804" y2="190"/>
    <line class="cls-1" x1="4804" y1="190" x2="4480" y2="245"/>
    <line class="cls-1" x1="4480" y1="245" x2="3954" y2="403"/>
    <line class="cls-1" x1="3954" y1="403" x2="3666" y2="496"/>
    <line class="cls-1" x1="2418" y1="2139" x2="2419" y2="2225"/>
    <line class="cls-1" x1="2342" y1="2302" x2="2419" y2="2303"/>
    <line class="cls-1" x1="2419" y1="2225" x2="2381" y2="2226"/>
    <line class="cls-1" x1="2419" y1="2225" x2="2419" y2="2303"/>
    <line class="cls-1" x1="2935" y1="2225" x2="2935" y2="2140"/>
    <line class="cls-1" x1="2935" y1="2225" x2="2896" y2="2226"/>
    <line class="cls-1" x1="4445" y1="2233" x2="4481" y2="2178"/>
    <line class="cls-1" x1="5057" y1="2143" x2="5016" y2="2213"/>
    <line class="cls-1" x1="5057" y1="2143" x2="5104" y2="2142"/>
    <line class="cls-1" x1="4481" y1="2178" x2="4515" y2="2080"/>
    <line class="cls-1" x1="4515" y1="2080" x2="4533" y2="1946"/>
    <line class="cls-1" x1="4533" y1="1946" x2="4531" y2="1851"/>
    <line class="cls-1" x1="4531" y1="1851" x2="4498" y2="1764"/>
    <line class="cls-1" x1="4498" y1="1764" x2="4445" y2="1684"/>
    <line class="cls-1" x1="4445" y1="1684" x2="4358" y2="1621"/>
    <line class="cls-1" x1="4358" y1="1621" x2="4267" y2="1589"/>
    <line class="cls-1" x1="4267" y1="1589" x2="4098" y2="1563"/>
    <line class="cls-1" x1="4098" y1="1563" x2="2987" y2="1556"/>
    <line class="cls-1" x1="2381" y1="2226" x2="2320" y2="2211"/>
    <line class="cls-1" x1="2320" y1="2211" x2="2281" y2="2177"/>
    <line class="cls-1" x1="2281" y1="2177" x2="2259" y2="2100"/>
    <line class="cls-1" x1="2259" y1="2100" x2="2242" y2="1976"/>
    <line class="cls-1" x1="2242" y1="1976" x2="2240" y2="1908"/>
    <line class="cls-1" x1="2240" y1="1908" x2="2262" y2="1840"/>
    <line class="cls-1" x1="2262" y1="1840" x2="2328" y2="1752"/>
    <line class="cls-1" x1="2328" y1="1752" x2="2410" y2="1691"/>
    <line class="cls-1" x1="2410" y1="1691" x2="2544" y2="1621"/>
    <line class="cls-1" x1="2544" y1="1621" x2="2668" y2="1579"/>
    <line class="cls-1" x1="2668" y1="1579" x2="2987" y2="1556"/>
    <line class="cls-1" x1="5016" y1="2213" x2="4930" y2="2335"/>
    <line class="cls-1" x1="4930" y1="2335" x2="4790" y2="2468"/>
    <line class="cls-1" x1="4790" y1="2468" x2="4592" y2="2598"/>
    <line class="cls-1" x1="4592" y1="2598" x2="4238" y2="2707"/>
    <line class="cls-1" x1="4238" y1="2707" x2="3827" y2="2772"/>
    <line class="cls-1" x1="3827" y1="2772" x2="3536" y2="2781"/>
    <line class="cls-1" x1="3536" y1="2781" x2="3176" y2="2776"/>
    <line class="cls-1" x1="3176" y1="2776" x2="2863" y2="2715"/>
    <line class="cls-1" x1="2863" y1="2715" x2="2719" y2="2627"/>
    <line class="cls-1" x1="2719" y1="2627" x2="2663" y2="2519"/>
    <line class="cls-1" x1="2663" y1="2519" x2="2668" y2="2401"/>
    <line class="cls-1" x1="2668" y1="2401" x2="2688" y2="2332"/>
    <line class="cls-1" x1="2688" y1="2332" x2="2750" y2="2270"/>
    <line class="cls-1" x1="2750" y1="2270" x2="2896" y2="2226"/>
    <line class="cls-1" x1="1192" y1="2004" x2="1340" y2="1912"/>
    <line class="cls-1" x1="1340" y1="1912" x2="1544" y2="1854"/>
    <line class="cls-1" x1="1544" y1="1854" x2="1716" y2="1837"/>
    <line class="cls-1" x1="2823" y1="2201" x2="2896" y2="2226"/>
    <line class="cls-1" x1="2823" y1="2201" x2="2699" y2="2113"/>
    <line class="cls-1" x1="2699" y1="2113" x2="2560" y2="2026"/>
    <line class="cls-1" x1="2560" y1="2026" x2="2467" y2="1972"/>
    <line class="cls-1" x1="2467" y1="1972" x2="2347" y2="1919"/>
    <line class="cls-1" x1="2347" y1="1919" x2="2203" y2="1869"/>
    <line class="cls-1" x1="2203" y1="1869" x2="2045" y2="1847"/>
    <line class="cls-1" x1="2045" y1="1847" x2="1963" y2="1836"/>
    <line class="cls-1" x1="1963" y1="1836" x2="1716" y2="1837"/>
    <line class="cls-1" x1="2028" y1="3010" x2="2186" y2="2878"/>
    <line class="cls-1" x1="2186" y1="2878" x2="2324" y2="2652"/>
    <line class="cls-1" x1="2324" y1="2652" x2="2369" y2="2449"/>
    <line class="cls-1" x1="2369" y1="2449" x2="2381" y2="2226"/>
    <line class="cls-1" x1="3666" y1="496" x2="3560" y2="531"/>
    <line class="cls-1" x1="3560" y1="531" x2="3460" y2="558"/>
    <line class="cls-1" x1="3460" y1="558" x2="3362" y2="568"/>
    <line class="cls-1" x1="3362" y1="568" x2="3320" y2="560"/>
    <line class="cls-1" x1="3320" y1="560" x2="3298" y2="538"/>
    <line class="cls-1" x1="3298" y1="538" x2="3292" y2="474"/>
    <line class="cls-1" x1="1016" y1="2280" x2="1018" y2="2297"/>
    <line class="cls-1" x1="1018" y1="2297" x2="1029" y2="2313"/>
    <line class="cls-1" x1="1029" y1="2313" x2="1090" y2="2347"/>
    <line class="cls-1" x1="1016" y1="2280" x2="1001" y2="2316"/>
    <line class="cls-1" x1="458" y1="2213" x2="432" y2="2174"/>
    <line class="cls-1" x1="1150" y1="443" x2="1232" y2="626"/>
  </g>
  <g id="Doors">
    <line id="lcd.RamTech" class="cls-2" x1="3253" y1="659" x2="3255" y2="681"/>
    <line id="lcd.FoodCourtSouth" class="cls-2" x1="2221" y1="2098" x2="2195" y2="2128"/>
    <line id="lcd.CampusInfoSouth" class="cls-2" x1="3242" y1="2180" x2="3242" y2="2201"/>
    <line id="lcd.CampusInfoEast" class="cls-2" x1="3251" y1="2164" x2="3269" y2="2151"/>
    <line id="lcd.FirstFloorHallway" class="cls-2" x1="1146" y1="252" x2="1153" y2="276"/>
    <line id="lcd.TopFloorGatherArea" class="cls-2" x1="5349" y1="2397" x2="5373" y2="2364"/>
    <line id="lcd.SouthExit" class="cls-2" x1="2975" y1="3106" x2="2957" y2="3127"/>
    <line id="R175_1_" class="cls-2" x1="1172" y1="750" x2="1142" y2="751"/>
    <line id="R144_1_" class="cls-2" x1="1053" y1="1767" x2="1036" y2="1782"/>
    <line id="R142_1_" class="cls-2" x1="1032" y1="1859" x2="1010" y2="1876"/>
    <line id="R141_1_" class="cls-2" x1="1008" y1="1942" x2="1002" y2="1921"/>
    <line id="R140_1_" class="cls-2" x1="975" y1="2026" x2="974" y2="2005"/>
    <line id="R120_1_" class="cls-2" x1="1178" y1="2346" x2="1157" y2="2323"/>
    <line id="R139_1_" class="cls-2" x1="936" y1="2165" x2="922" y2="2180"/>
    <line id="R130_1_" class="cls-2" x1="870" y1="2285" x2="875" y2="2259"/>
    <line id="R150_1_" class="cls-2" x1="700" y1="2051" x2="721" y2="2071"/>
    <line id="R176_1_" class="cls-2" x1="1367" y1="650" x2="1352" y2="634"/>
    <line id="R178_1_" class="cls-2" x1="1300" y1="281" x2="1282" y2="257"/>
    <line id="R151_1_" class="cls-2" x1="575" y1="1760" x2="597" y2="1780"/>
    <line id="R152_1_" class="cls-2" x1="458" y1="2072" x2="472" y2="2103"/>
    <line id="R134_1_" class="cls-2" x1="346" y1="2230" x2="369" y2="2213"/>
    <line id="R118_1_" class="cls-2" x1="1035" y1="2485" x2="1050" y2="2467"/>
    <line id="R191_1_" class="cls-2" x1="1105" y1="282" x2="1114" y2="306"/>
    <line id="R195_1_" class="cls-2" x1="1008" y1="181" x2="1032" y2="163"/>
    <line id="R197_1_" class="cls-2" x1="844" y1="392" x2="831" y2="374"/>
    <line id="R252_1_" class="cls-2" x1="2511" y1="2052" x2="2535" y2="2071"/>
    <line id="R252_2_" class="cls-2" x1="2678" y1="2052" x2="2702" y2="2069"/>
    <line id="R252_3_" class="cls-2" x1="2851" y1="2052" x2="2875" y2="2069"/>
    <line id="R252_4_" class="cls-2" x1="3014" y1="1964" x2="3033" y2="1987"/>
    <line id="R212_1" class="cls-2" x1="3052" y1="2395" x2="3022" y2="2373"/>
    <line id="R212_2_" class="cls-2" x1="3041" y1="2411" x2="3022" y2="2440"/>
    <line id="R210_1_" class="cls-2" x1="2994" y1="2531" x2="2976" y2="2555"/>
    <line id="R207_1_" class="cls-2" x1="2869" y1="2787" x2="2891" y2="2815"/>
    <line id="R203_1_" class="cls-2" x1="2783" y1="3106" x2="2799" y2="3128"/>
    <line id="R200B_1_" class="cls-2" x1="2783" y1="3251" x2="2805" y2="3238"/>
    <line id="R204_1_" class="cls-2" x1="3035" y1="3196" x2="3010" y2="3176"/>
    <line id="R206_1_" class="cls-2" x1="3033" y1="3037" x2="3012" y2="3007"/>
    <line id="R201TH_1_" class="cls-2" x1="2333" y1="3257" x2="2369" y2="3230"/>
    <line id="R242_1_" class="cls-2" x1="3176" y1="2139" x2="3154" y2="2116"/>
    <line id="R244_1_" class="cls-2" x1="3176" y1="1964" x2="3154" y2="1985"/>
    <line id="R246_1_" class="cls-2" x1="3176" y1="1799" x2="3157" y2="1825"/>
    <line id="R231_1_" class="cls-2" x1="3292" y1="1764" x2="3316" y2="1783"/>
    <line id="R228_1_" class="cls-2" x1="3292" y1="1830" x2="3315" y2="1849"/>
    <line id="R226_1_" class="cls-2" x1="3292" y1="1908" x2="3318" y2="1930"/>
    <line id="R223_1_" class="cls-2" x1="3292" y1="2014" x2="3321" y2="2044"/>
    <line id="R230_1_" class="cls-2" x1="3435" y1="1764" x2="3418" y2="1783"/>
    <line id="R225_1_" class="cls-2" x1="3532" y1="1956" x2="3496" y2="1936"/>
    <line id="R232_1_" class="cls-2" x1="3536" y1="1704" x2="3496" y2="1677"/>
    <line id="R234_1_" class="cls-2" x1="3440" y1="1631" x2="3471" y2="1656"/>
    <line id="R222_1_" class="cls-2" x1="3502" y1="2253" x2="3482" y2="2232"/>
    <line id="R271_1_" class="cls-2" x1="3195" y1="1280" x2="3168" y2="1256"/>
    <line id="R275_1_" class="cls-2" x1="3237" y1="1209" x2="3204" y2="1213"/>
    <line id="R274_1_" class="cls-2" x1="3063" y1="1122" x2="3091" y2="1124"/>
    <line id="R276_1_" class="cls-2" x1="2974" y1="1063" x2="3002" y2="1049"/>
    <line id="R279_1_" class="cls-2" x1="3084" y1="882" x2="3095" y2="926"/>
    <line id="R284_1_" class="cls-2" x1="2820" y1="421" x2="2840" y2="449"/>
    <line id="R285_1_" class="cls-2" x1="2586" y1="379" x2="2587" y2="403"/>
    <line id="R286_1_" class="cls-2" x1="2570" y1="436" x2="2587" y2="416"/>
    <line id="R280_1_" class="cls-2" x1="3210" y1="687" x2="3186" y2="708"/>
    <line id="R288_1_" class="cls-2" x1="3204" y1="311" x2="3229" y2="351"/>
    <line id="R290_1_" class="cls-2" x1="2949" y1="254" x2="2989" y2="237"/>
    <line id="R200A_1_" class="cls-2" x1="2940" y1="3445" x2="2915" y2="3417"/>
    <line id="R300_1_" class="cls-2" x1="5076" y1="3412" x2="5098" y2="3395"/>
    <line id="R301A_1_" class="cls-2" x1="5088" y1="3270" x2="5107" y2="3299"/>
    <line id="R302_1_" class="cls-2" x1="5259" y1="3214" x2="5284" y2="3190"/>
    <line id="R303_1_" class="cls-2" x1="5139" y1="3085" x2="5163" y2="3102"/>
    <line id="R304_1_" class="cls-2" x1="5324" y1="3054" x2="5299" y2="3034"/>
    <line id="R306_1_" class="cls-2" x1="5316" y1="2954" x2="5294" y2="2974"/>
    <line id="R308_1_" class="cls-2" x1="5314" y1="2860" x2="5294" y2="2883"/>
    <line id="R309_1_" class="cls-2" x1="5184" y1="2858" x2="5203" y2="2881"/>
    <line id="R310_1_" class="cls-2" x1="5314" y1="2730" x2="5295" y2="2756"/>
    <line id="R312_1_" class="cls-2" x1="5313" y1="2587" x2="5294" y2="2613"/>
    <line id="R315_1_" class="cls-2" x1="5215" y1="2440" x2="5182" y2="2412"/>
    <line id="R316_1_" class="cls-2" x1="4979" y1="2495" x2="4956" y2="2514"/>
    <line id="R350A_1_" class="cls-2" x1="4985" y1="2036" x2="5019" y2="2064"/>
    <line id="R350B_1_" class="cls-2" x1="4747" y1="2035" x2="4774" y2="2064"/>
    <line id="R350C_1_" class="cls-2" x1="4626" y1="2035" x2="4596" y2="2064"/>
    <line id="R350D_1_" class="cls-2" x1="4391" y1="2035" x2="4357" y2="2068"/>
    <line id="R320_1_" class="cls-2" x1="5323" y1="2142" x2="5298" y2="2118"/>
    <line id="R324_1_" class="cls-2" x1="5437" y1="2167" x2="5459" y2="2145"/>
    <line id="R323_1_" class="cls-2" x1="5436" y1="2025" x2="5417" y2="2046"/>
    <line id="R322_1_" class="cls-2" x1="5344" y1="1968" x2="5368" y2="1992"/>
    <line id="R338_1_" class="cls-2" x1="5437" y1="1793" x2="5457" y2="1773"/>
    <line id="R330_1_" class="cls-2" x1="5447" y1="1873" x2="5464" y2="1851"/>
    <line id="R328_1_" class="cls-2" x1="5437" y1="1939" x2="5458" y2="1959"/>
    <line id="R332_1_" class="cls-2" x1="5575" y1="1793" x2="5561" y2="1814"/>
    <line id="R326_1_" class="cls-2" x1="5642" y1="2103" x2="5621" y2="2084"/>
    <line id="R327_1_" class="cls-2" x1="5662" y1="2035" x2="5640" y2="2009"/>
    <line id="R333_1_" class="cls-2" x1="5672" y1="1745" x2="5651" y2="1769"/>
    <line id="R335_1_" class="cls-2" x1="5597" y1="1664" x2="5621" y2="1689"/>
    <line id="R336_1_" class="cls-2" x1="5556" y1="1601" x2="5530" y2="1623"/>
    <line id="R366_1_" class="cls-2" x1="5197" y1="1594" x2="5214" y2="1612"/>
    <line id="R368_1_" class="cls-2" x1="5199" y1="1536" x2="5217" y2="1516"/>
    <line id="R372_1_" class="cls-2" x1="5297" y1="1100" x2="5283" y2="1067"/>
    <line id="R374_1_" class="cls-2" x1="5328" y1="1008" x2="5319" y2="977"/>
    <line id="R376_1_" class="cls-2" x1="5351" y1="918" x2="5322" y2="931"/>
    <line id="R378_1_" class="cls-2" x1="5370" y1="807" x2="5343" y2="824"/>
    <line id="R380_1_" class="cls-2" x1="5425" y1="739" x2="5416" y2="709"/>
    <line id="R382_1_" class="cls-2" x1="5308" y1="616" x2="5324" y2="641"/>
    <line id="R384_1_" class="cls-2" x1="5082" y1="713" x2="5067" y2="686"/>
    <line id="R388A_1_" class="cls-2" x1="4861" y1="674" x2="4852" y2="646"/>
    <line id="R388B_1_" class="cls-2" x1="4708" y1="634" x2="4733" y2="620"/>
    <line id="R388C_1_" class="cls-2" x1="4732" y1="730" x2="4719" y2="703"/>
    <line id="R388D_1_" class="cls-2" x1="4788" y1="739" x2="4813" y2="721"/>
    <line id="R388_1_" class="cls-2" x1="4641" y1="1022" x2="4621" y2="986"/>
    <line id="R390_1_" class="cls-2" x1="4690" y1="528" x2="4717" y2="507"/>
    <line id="R392_1_" class="cls-2" x1="4719" y1="426" x2="4725" y2="455"/>
    <line id="R386_1_" class="cls-2" x1="4958" y1="518" x2="4927" y2="536"/>
    <line id="R152B_1_" class="cls-2" x1="188" y1="1948" x2="193" y2="1986"/>
    <line id="R152A_1_" class="cls-2" x1="181" y1="2035" x2="195" y2="2012"/>
    <line id="R195E_1_" class="cls-2" x1="1113" y1="207" x2="1158" y2="207"/>
    <line id="R240_1_" class="cls-2" x1="3169" y1="2239" x2="3151" y2="2257"/>
  </g>
  <g id="Rooms">
        <a id="R175">
      <polygon points="919 587 1161 655 1235 779 1171 1020 1158 1017 1121 1148 605 1004 647 849 624 807 549 785 517 904 471 892 582 494 726 533 751 432 948 488 919 587"/>
    </a>
    <a id="R144">
      <polygon points="1050 1713 1106 1729 1075 1837 1021 1820 1050 1713"/>
    </a>
    <a id="R142">
      <polygon points="1063 1669 1156 1693 1156 1759 1228 1759 1227 1886 1226 1886 1226 1902 1195 1902 1195 1886 1129 1887 1129 1932 999 1899 1021 1823 1076 1839 1109 1729 1052 1711 1063 1669"/>
    </a>
    <a id="R140">
      <polygon points="975 1978 1035 1995 1006 2103 944 2085 975 1978"/>
    </a>
    <a id="R141">
      <polygon points="977 1976 999 1902 1128 1937 1129 2193 977 2213 994 2153 930 2136 944 2088 1006 2105 1038 1994 977 1976"/>
    </a>
    <a id="R139">
      <path d="M915,2194l15-56,61,17-15,56Z"/>
    </a>
    <a id="R130">
      <polygon points="834 2252 834 2224 890 2240 890 2401 112 2403 112 2305 153 2305 154 2366 206 2367 207 2303 474 2302 474 2252 834 2252"/>
    </a>
    <a id="R120">
      <polygon points="1133 2256 1133 1890 1190 1890 1190 1905 1254 1904 1254 1872 1294 1872 1294 1998 1304 1998 1304 2113 1293 2113 1294 3073 1187 3073 1186 3034 1092 3035 1092 2989 1139 2990 1139 2689 1014 2690 1015 2526 1140 2525 1139 2429 1139 2257 1133 2256"/>
    </a>
    <a id="R150">
      <path d="M672,2125V1711H853l17-60,92-2,14,74h11s8,33-24,88c0,0,7,77-74,71,0,0,72,259-91,247Z"/>
    </a>
    <a id="R176">
      <polygon points="1336 600 1341 683 1388 696 1409 621 1336 600"/>
    </a>
    <a id="R178">
      <path d="M1246,391c9,29,27,36,27,36l53,16,87,22v21h44V178l-164-45-48,170Z"/>
      <path d="M1233,160"/>
    </a>
    <a id="R195">
      <path d="M859,196l27-95,112,33v19h33V135h27v13h31l15,24-11,7-29,107-51-13s10-32,9-32Z"/>
    </a>
    <a id="R191">
      <polygon points="1084 223 1148 241 1116 359 1071 385 1042 379 1084 223"/>
    </a>
    <a id="R197">
      <polygon points="750 333 862 366 837 454 724 422 750 333"/>
    </a>
    <a id="R118">
      <path d="M899,2333l29,2,56,16v88h30v22h45l2,60h-53v176h127v163H848V2405h51Z"/>
    </a>
    <a id="R134">
      <rect x="289" y="2204" width="114" height="92"/>
    </a>
    <a id="R152">
      <polygon points="212 1710 505 1711 506 2124 212 2125 212 1710"/>
    </a>
    <a id="R151">
      <rect x="512" y="1710" width="153" height="82.25"/>
    </a>
    <a id="R252">
      <polygon points="3070 2092 3070 1766 2892 1766 2892 1711 2133 1710 2133 1670 2036 1670 2036 1655 2011 1655 2009 2092 3070 2092"/>
    </a>
    <a id="R207">
      <rect x="2768" y="2387" width="126" height="445"/>
    </a>
    <a id="R242">
      <polygon points="3131 2098 3131 2177 3241 2177 3240 2098 3131 2098"/>
    </a>
    <a id="R244">
      <polygon points="3129 2092 3129 1925 3233 1925 3233 1952 3239 1952 3239 2093 3129 2092"/>
    </a>
    <a id="R246">
      <path d="M3131,1743v181h101s1-181,0-181Z"/>
    </a>
    <a id="R231">
      <rect x="3239" y="1726" width="98" height="65.33"/>
    </a>
    <a id="R228">
      <polygon points="3239 1797 3338 1797 3339 1869 3239 1869 3239 1797"/>
    </a>
    <a id="R226">
      <polygon points="3239 1875 3338 1875 3339 1949 3239 1949 3239 1875"/>
    </a>
    <a id="R223">
      <polygon points="3245 1953 3347 1953 3347 2098 3298 2098 3298 2085 3245 2086 3245 1953"/>
    </a>
    <a id="R234">
      <path d="M3483,1509v161H3362s1-45,0-45h-40v-12h3V1509Z"/>
    </a>
    <a id="R232">
      <polygon points="3488 1509 3577 1509 3610 1766 3488 1766 3488 1509"/>
    </a>
    <a id="R230">
      <polygon points="3394 1734 3483 1736 3483 1807 3394 1807 3394 1734"/>
    </a>
    <a id="R225">
      <polygon points="3490 1771 3612 1771 3626 1875 3626 2100 3488 2095 3490 1771"/>
    </a>
    <a id="R222">
      <rect x="3451" y="2096" width="90" height="176"/>
    </a>
    <a id="R212">
      <polygon points="3010 2366 3010 2497 3097 2497 3096 2401 3080 2401 3080 2366 3010 2366"/>
    </a>
    <a id="R210">
      <polygon points="2951 2503 2951 2775 2998 2775 2998 2824 3247 2824 3247 2503 2951 2503"/>
    </a>
    <a id="R206">
      <polygon points="2951 2832 2951 2979 2979 2979 2979 3134 3247 3134 3247 2832 2951 2832"/>
    </a>
    <a id="R204">
      <polygon points="2979 3141 3247 3141 3247 3341 2979 3341 2979 3141"/>
    </a>
    <a id="R203">
      <rect x="2736" y="3071" width="96" height="102.88"/>
    </a>
    <a id="R200B">
      <polygon points="2736 3177 2735 3366 2832 3366 2832 3177 2736 3177"/>
    </a>
    <a id="R200A">
      <polygon points="2893 3382 3162 3382 3162 3533 2975 3533 2975 3571 2893 3571 2893 3382"/>
    </a>
    <a id="R201TH">
      <polygon points="2197 3162 2154 3415 2175 3492 2532 3492 2555 3416 2512 3162 2197 3162"/>
    </a>
    <a id="R271">
      <polygon points="3120 1603 3120 1406 3166 1236 3175 1239 3178 1230 3305 1267 3251 1467 3242 1467 3243 1516 3196 1516 3195 1570 3222 1571 3222 1603 3120 1603"/>
    </a>
    <a id="R275">
      <polygon points="3231 1039 3356 1074 3305 1263 3179 1228 3231 1039"/>
    </a>
    <a id="R274">
      <polygon points="2961 1080 3046 1103 3077 1087 3096 1121 3058 1259 3057 1297 2914 1257 2961 1080"/>
    </a>
    <a id="R276">
      <polygon points="3027 1065 3018 1093 2960 1077 2935 1167 2713 1106 2683 1208 2362 1120 2390 1018 2359 1009 2412 818 2557 859 2541 918 2572 927 2561 968 2779 1030 2784 1015 2850 1033 2875 946 3027 989 3008 1059 3027 1065"/>
    </a>
    <a id="R279">
      <polygon points="3013 1056 3027 1060 3120 1008 3113 994 3158 822 3020 577 2986 567 2983 578 2860 544 2863 534 2638 474 2636 484 2516 452 2413 816 2562 858 2546 916 2577 925 2566 966 2777 1024 2782 1010 2848 1028 2873 942 3032 987 3013 1056"/>
    </a>
    <a id="R280">
      <polygon points="3171 717 3189 723 3231 699 3236 701 3260 616 3143 405 3145 398 2936 340 2929 370 3027 403 3002 503 3060 519 3171 717"/>
    </a>
    <a id="R286">
      <polygon points="2531 393 2515 449 2592 471 2607 415 2531 393"/>
    </a>
    <a id="R285">
      <polygon points="2546 336 2531 391 2608 413 2623 357 2546 336"/>
    </a>
    <a id="R284">
      <polygon points="2699 274 2809 304 2802 328 2879 349 2849 461 2732 428 2753 339 2687 318 2699 274"/>
    </a>
    <a id="R290">
      <polygon points="2815 252 2992 301 3048 96 2872 46 2815 252"/>
    </a>
    <a id="R288">
      <polygon points="3219 145 3402 198 3408 419 3358 419 3354 404 3162 348 3219 145"/>
    </a>
    <a id="R152A">
      <rect x="117" y="2004" width="90" height="114"/>
    </a>
    <a id="R152B">
      <path d="M207,1997V1770H115s-2,227,1,227Z"/>
    </a>
    <a id="R350D">
      <path d="M4159,1684v437h38v-53h152v13h65v-13h17v31h8s2-402,0-402H4188v-12Z"/>
    </a>
    <a id="R350C">
      <polygon points="4445 2099 4457 2099 4457 2068 4590 2068 4590 2081 4654 2081 4654 2066 4673 2066 4673 2099 4681 2099 4680 1697 4445 1697 4445 2099"/>
    </a>
    <a id="R350B">
      <polygon points="4685 2098 4697 2099 4697 2066 4716 2066 4716 2081 4780 2081 4780 2067 4913 2068 4913 2099 4921 2099 4920 1697 4685 1697 4685 2098"/>
    </a>
    <a id="R350A">
      <polygon points="4938 2099 4926 2099 4926 1697 5164 1697 5164 2067 5019 2067 5019 2082 4956 2083 4956 2066 4937 2066 4938 2099"/>
    </a>
    <a id="R316">
      <rect x="4930" y="2401" width="112" height="115.5"/>
    </a>
    <a id="R315">
      <polygon points="5046 2400 5047 2796 5187 2795 5187 2749 5233 2749 5233 2639 5187 2640 5188 2516 5232 2516 5233 2400 5046 2400"/>
    </a>
    <a id="R309">
      <rect x="5046" y="2802" width="166" height="104.67"/>
    </a>
    <a id="R303">
      <polygon points="5046 2912 5225 2912 5226 3109 5046 3109 5046 2912"/>
    </a>
    <a id="R301A">
      <polygon points="5115 3349 5115 3229 5043 3229 5043 3349 5115 3349"/>
    </a>
    <a id="R300">
      <polygon points="5044 3389 5045 3551 5304 3551 5304 3417 5157 3417 5156 3389 5044 3389"/>
    </a>
    <a id="R302">
      <polygon points="5205 3181 5304 3181 5303 3106 5440 3107 5441 3402 5304 3402 5303 3355 5205 3355 5205 3181"/>
    </a>
    <a id="R304">
      <path d="M5409,3007H5280v97h129Z"/>
    </a>
    <a id="R306">
      <polygon points="5280 2906 5408 2906 5409 3002 5280 3002 5280 2906"/>
    </a>
    <a id="R308">
      <polygon points="5280 2902 5280 2807 5409 2807 5408 2902 5280 2902"/>
    </a>
    <a id="R310">
      <polygon points="5280 2707 5280 2802 5409 2802 5408 2707 5280 2707"/>
    </a>
    <a id="R312">
      <polygon points="5280 2702 5280 2530 5409 2530 5409 2702 5280 2702"/>
    </a>
    <a id="R320">
      <polygon points="5282 2010 5394 2010 5393 2238 5408 2238 5409 2402 5282 2404 5282 2010"/>
    </a>
    <a id="R324">
      <rect x="5399" y="2135" width="168" height="94.28"/>
    </a>
    <a id="R328">
      <polygon points="5397 1976 5397 1903 5469 1903 5469 1977 5397 1976"/>
    </a>
    <a id="R323">
      <rect x="5397" y="1980" width="72" height="73.5"/>
    </a>
    <a id="R330">
      <rect x="5397" y="1829" width="73" height="70.67"/>
    </a>
    <a id="R338">
      <rect x="5397" y="1764" width="74" height="61.13"/>
    </a>
    <a id="R322">
      <rect x="5285" y="1799" width="107" height="207"/>
    </a>
    <a id="R326">
      <rect x="5603" y="2070" width="72" height="65.5"/>
    </a>
    <a id="R327">
      <polygon points="5625 1903 5626 2067 5679 2067 5679 2127 5793 2126 5793 1903 5625 1903"/>
    </a>
    <a id="R333">
      <polygon points="5625 1900 5626 1703 5794 1702 5793 1900 5625 1900"/>
    </a>
    <a id="R332">
      <rect x="5545" y="1764" width="73" height="61.13"/>
    </a>
    <a id="R335">
      <polygon points="5568 1699 5794 1699 5794 1540 5568 1540 5568 1699"/>
    </a>
    <a id="R336">
      <polygon points="5468 1633 5468 1542 5564 1542 5563 1633 5468 1633"/>
    </a>
    <a id="R368">
      <rect x="5154" y="1500" width="72" height="57.88"/>
    </a>
    <a id="R366">
      <rect x="5136" y="1563" width="91" height="58.38"/>
    </a>
    <a id="R372">
      <polygon points="5257 1047 5379 1079 5352 1176 5230 1142 5257 1047"/>
    </a>
    <a id="R374">
      <polygon points="5283 950 5399 980 5372 1073 5257 1041 5283 950"/>
    </a>
    <a id="R376">
      <polygon points="5311 854 5425 885 5399 977 5286 946 5311 854"/>
    </a>
    <a id="R378">
      <polygon points="5336 755 5454 787 5426 880 5311 849 5336 755"/>
    </a>
    <a id="R380">
      <polygon points="5419 638 5490 658 5454 784 5382 764 5419 638"/>
    </a>
    <a id="R382">
      <path d="M5190,403l225,62-52,194-227-63Z"/>
    </a>
    <a id="R386">
      <polyline points="4846 308 5067 370 5015 564 4792 502 4845 309"/>
    </a>
    <a id="R392">
      <polygon points="4692 374 4756 388 4731 484 4666 464 4692 374"/>
    </a>
    <a id="R390">
      <polygon points="4667 466 4731 485 4704 576 4639 558 4667 466"/>
    </a>
    <a id="R388A">
      <path d="M4829,615l160,44-26,95-159-45,6-18,20-11-11-18,19-11-11-24Z"/>
    </a>
    <a id="R388B">
      <polygon points="4639 560 4759 594 4732 691 4615 658 4639 560"/>
    </a>
    <a id="R388C">
      <polygon points="4615 660 4774 703 4693 991 4535 947 4615 660"/>
    </a>
    <a id="R388D">
      <polygon points="4776 704 4962 756 4882 1044 4697 991 4776 704"/>
    </a>
    <a id="R388">
      <polygon points="4535 950 4495 1095 4610 1127 4614 1113 4655 1125 4690 993 4535 950"/>
    </a>
    <a id="R195E">
      <path d="M1145,237l-61-17,10-39,29-19S1160,170,1145,237Z"/>
    </a>
    <a id="R240">
      <polygon points="3104 2182 3239 2182 3241 2262 3104 2262 3104 2182"/>
    </a>
    <a id="R384">
      <polygon points="4992 659 5217 722 5110 1109 4884 1044 4992 659"/>
    </a>
  </g>
</svg>
